# Blender v2.79 (sub 0) OBJ File: 'low-people-5.blend'
# www.blender.org
mtllib low-people-5.mtl
o LowPeople05
v -0.134865 10.826441 -0.788984
v -0.568547 11.125141 -0.373217
v -0.420330 11.728241 -0.364074
v -0.081258 11.677040 -0.612047
v 0.499065 11.056141 -0.566588
v 0.357949 11.906340 -0.085404
v 0.653077 11.503839 0.045356
v 0.008929 11.686340 0.761032
v -0.048466 11.984240 0.259286
v -0.442996 11.561640 0.538323
v -0.317786 11.940041 0.212995
v -0.771887 11.117941 0.133404
v -0.461082 11.840040 -0.031212
v 0.111477 11.294340 0.830317
v -0.489090 11.183340 0.607295
v 0.407252 10.452440 0.095354
v 0.365252 10.343040 -0.331441
v 0.261008 10.483540 0.400810
v -0.013783 10.470840 0.665672
v -0.356500 10.599440 0.416017
v -0.072482 10.188940 -0.491517
v -0.471943 10.429340 0.097424
v -0.376124 10.344540 0.538902
v -0.391859 10.180740 -0.154823
v 0.343974 10.107840 -0.182388
v -0.018125 10.011440 -0.258528
v 0.502280 10.236441 0.154037
v -0.030372 10.077740 0.945301
v 0.461816 10.053541 0.844055
v -0.744161 9.921841 0.872132
v -0.639850 10.031340 0.260615
v -1.252238 8.228741 -0.708871
v -1.500273 9.592441 0.431641
v -0.652944 9.134741 1.294330
v 0.940850 9.056040 -0.562478
v -0.101592 7.682240 -1.077261
v 1.341021 9.879440 0.409185
v 0.118165 9.194941 1.295212
v -1.790055 8.142941 0.544553
v -0.289517 5.386440 -1.138187
v -1.684860 2.046140 0.367254
v 1.146306 6.361440 0.963067
v 1.865019 6.553740 -0.109615
v -0.461548 2.080841 1.426627
v -1.476904 2.206141 1.223784
v 0.722791 5.151940 -1.167211
v 1.623449 4.884740 -0.219216
v 1.035394 3.524440 -0.366064
v -0.631076 1.807840 -0.712169
v 1.240312 4.428441 0.042729
v -1.188483 1.864841 -0.230337
v -0.413297 2.026940 1.112883
v 0.289879 1.928041 0.882222
v 0.997557 1.558040 0.599059
v 0.780260 1.800440 -0.335674
v 0.540034 1.776440 0.014938
v -0.601484 1.837040 -0.421075
v 1.018237 1.392840 0.517517
v -1.003525 1.900840 -0.127814
v -1.187754 1.992240 0.316547
v -1.049459 2.039340 0.823063
v -0.462229 1.995241 0.951744
v -0.089503 12.019140 -0.149357
v -0.401610 1.765740 0.756466
v -0.621810 1.751640 0.848102
v -0.528694 0.948040 0.856572
v -0.737784 0.906040 0.396825
v -0.872012 1.740140 0.356123
v -0.580971 0.928240 0.234171
v -0.671379 1.753340 0.239956
v -0.395095 1.770140 0.251990
v -0.315046 1.772940 0.521289
v -0.231855 0.444941 0.273262
v -0.640715 0.578741 -0.016402
v -0.751483 0.341041 0.782913
v -0.486284 0.226740 0.995747
v -0.879249 0.437340 0.194751
v -0.383441 0.032741 0.818283
v -0.329032 0.187340 0.482336
v -0.817947 0.172841 0.434701
v -0.575470 0.086140 0.805995
v -0.492489 0.040141 0.921264
v -0.597776 0.039540 0.634557
v -0.573371 0.017840 0.603721
v -0.460529 0.011440 0.623727
v -0.434914 0.002340 0.718143
v -0.601148 0.500540 -0.294334
v -0.881491 0.487840 -0.100247
v -0.914085 0.045940 0.057164
v -0.552666 0.033540 -0.798285
v -0.290716 0.409740 -0.340166
v -0.770492 0.165441 -0.805871
v -0.867778 0.057740 -0.741860
v -0.589734 0.152141 -0.811973
v -0.726614 0.091540 -0.857427
v -0.114458 1.984840 1.058760
v -0.524255 2.042640 1.119824
v -0.840550 2.046940 1.006374
v -1.107127 2.042840 0.768468
v -1.213002 1.930541 0.095331
v -0.590855 1.811340 -0.631059
v -0.086426 1.786940 -0.227494
v 0.938160 1.975940 0.160609
v 0.936224 1.998840 0.328749
v 0.929259 1.339440 0.658326
v 0.983532 0.929040 0.385951
v 0.547178 1.691841 0.556907
v 0.526531 1.683540 0.320568
v 0.610817 1.290740 0.251927
v 0.766318 1.625640 0.098531
v 0.904197 0.826040 0.267482
v 0.813906 0.874040 0.840769
v 0.836044 1.737540 0.711226
v 0.560325 0.317640 0.847268
v 0.655327 1.784340 0.679940
v 0.522098 0.546840 0.577583
v 0.655519 0.844541 0.181507
v 1.101274 0.352840 0.522400
v 0.893348 0.635040 0.128249
v 0.842528 0.505440 1.025462
v 0.582824 0.621940 -0.037806
v 0.513814 0.343540 0.239230
v 0.603663 0.213440 0.484829
v 0.732813 0.011840 0.895320
v 0.800786 0.005540 0.894604
v 0.779292 -0.004960 0.679472
v 0.869435 0.003941 0.651008
v 1.064250 0.213941 0.530415
v 0.873557 0.005641 0.663446
v 0.858757 0.002040 0.723729
v 0.868257 0.019940 0.800359
v 0.899753 0.227440 -0.802563
v 0.701411 0.115740 -0.670265
v 1.174410 0.033140 -0.428963
v 0.631035 0.029040 -0.461361
v 1.207485 0.206541 -0.397006
v 0.993955 0.188640 -0.814967
v 0.845687 0.108140 -0.853829
v 0.812184 0.058840 -0.785302
v 0.975114 0.086140 -0.846365
v 0.897030 2.052841 0.515210
v 0.687691 2.031240 0.722453
v 0.521855 2.004140 0.740336
v 0.314110 1.859740 0.474500
v 0.378088 1.783540 -0.101354
v 0.723549 1.748741 -0.219666
v 0.226455 1.787640 -0.094757
v 0.157155 1.937940 0.923688
vt 1.000000 1.000000
vt 1.000000 1.000000
vt 1.000000 1.000000
vt 1.000000 1.000000
vt 1.000000 1.000000
vt 1.000000 1.000000
vt 1.000000 1.000000
vt 1.000000 1.000000
vt 1.000000 1.000000
vt 1.000000 1.000000
vt 1.000000 1.000000
vt 1.000000 1.000000
vt 1.000000 1.000000
vt 1.000000 1.000000
vt 1.000000 1.000000
vt 1.000000 1.000000
vt 1.000000 1.000000
vt 1.000000 1.000000
vt 1.000000 1.000000
vt 1.000000 1.000000
vt 1.000000 1.000000
vt 1.000000 1.000000
vt 1.000000 1.000000
vt 1.000000 1.000000
vt 1.000000 1.000000
vt 1.000000 1.000000
vt 1.000000 1.000000
vt 1.000000 1.000000
vt 1.000000 1.000000
vt 1.000000 1.000000
vt 1.000000 1.000000
vt 1.000000 1.000000
vt 1.000000 1.000000
vt 1.000000 1.000000
vt 1.000000 1.000000
vt 1.000000 1.000000
vt 1.000000 1.000000
vt 1.000000 1.000000
vt 1.000000 1.000000
vt 1.000000 1.000000
vt 1.000000 1.000000
vt 1.000000 1.000000
vt 1.000000 1.000000
vt 1.000000 1.000000
vt 1.000000 1.000000
vt 1.000000 1.000000
vt 1.000000 1.000000
vt 1.000000 1.000000
vt 1.000000 1.000000
vt 1.000000 1.000000
vt 1.000000 1.000000
vt 1.000000 1.000000
vt 1.000000 1.000000
vt 1.000000 1.000000
vt 1.000000 1.000000
vt 1.000000 1.000000
vt 1.000000 1.000000
vt 1.000000 1.000000
vt 1.000000 1.000000
vt 1.000000 1.000000
vt 1.000000 1.000000
vt 1.000000 1.000000
vt 1.000000 1.000000
vt 1.000000 1.000000
vt 1.000000 1.000000
vt 1.000000 1.000000
vt 1.000000 1.000000
vt 1.000000 1.000000
vt 1.000000 1.000000
vt 1.000000 1.000000
vt 1.000000 1.000000
vt 1.000000 1.000000
vt 1.000000 1.000000
vt 1.000000 1.000000
vt 1.000000 1.000000
vt 1.000000 1.000000
vt 1.000000 1.000000
vt 1.000000 1.000000
vt 1.000000 1.000000
vt 1.000000 1.000000
vt 1.000000 1.000000
vt 1.000000 1.000000
vt 1.000000 1.000000
vt 1.000000 1.000000
vt 1.000000 1.000000
vt 1.000000 1.000000
vt 1.000000 1.000000
vt 1.000000 1.000000
vt 1.000000 1.000000
vt 1.000000 1.000000
vt 1.000000 1.000000
vt 1.000000 1.000000
vt 1.000000 1.000000
vt 1.000000 1.000000
vt 1.000000 1.000000
vt 1.000000 1.000000
vt 1.000000 1.000000
vt 1.000000 1.000000
vt 1.000000 1.000000
vt 1.000000 1.000000
vt 1.000000 1.000000
vt 1.000000 1.000000
vt 1.000000 1.000000
vt 1.000000 1.000000
vt 1.000000 1.000000
vt 1.000000 1.000000
vt 1.000000 1.000000
vt 1.000000 1.000000
vt 1.000000 1.000000
vt 1.000000 1.000000
vt 1.000000 1.000000
vt 1.000000 1.000000
vt 1.000000 1.000000
vt 1.000000 1.000000
vt 1.000000 1.000000
vt 1.000000 1.000000
vt 1.000000 1.000000
vt 1.000000 1.000000
vt 1.000000 1.000000
vt 1.000000 1.000000
vt 1.000000 1.000000
vt 1.000000 1.000000
vt 1.000000 1.000000
vt 1.000000 1.000000
vt 1.000000 1.000000
vt 1.000000 1.000000
vt 1.000000 1.000000
vt 1.000000 1.000000
vt 1.000000 1.000000
vt 1.000000 1.000000
vt 1.000000 1.000000
vt 1.000000 1.000000
vt 1.000000 1.000000
vt 1.000000 1.000000
vt 1.000000 1.000000
vt 1.000000 1.000000
vt 1.000000 1.000000
vt 1.000000 1.000000
vt 1.000000 1.000000
vt 1.000000 1.000000
vt 1.000000 1.000000
vt 1.000000 1.000000
vt 1.000000 1.000000
vt 1.000000 1.000000
vt 1.000000 1.000000
vt 1.000000 1.000000
vt 1.000000 1.000000
vt 1.000000 1.000000
vn -0.5917 0.1827 -0.7852
vn 0.4338 0.3445 -0.8326
vn 0.7709 0.4058 -0.4909
vn 0.5962 0.6822 0.4232
vn -0.3822 0.7305 0.5660
vn -0.8581 0.4500 0.2472
vn -0.9117 0.2806 -0.3001
vn 0.7458 0.3002 0.5947
vn -0.4114 0.1317 0.9019
vn -0.8542 0.1922 0.4832
vn 0.9733 -0.2200 -0.0657
vn 0.8472 -0.1478 0.5103
vn 0.6791 -0.2419 0.6930
vn -0.4401 -0.2223 0.8700
vn -0.7836 -0.3468 0.5155
vn 0.4238 -0.3516 -0.8347
vn -0.8738 -0.2196 0.4339
vn -0.9217 -0.2969 -0.2498
vn -0.7292 -0.3093 -0.6104
vn -0.4265 0.4192 0.8015
vn 0.3939 -0.6072 -0.6900
vn 0.9638 0.0359 -0.2642
vn 0.8203 0.4550 0.3464
vn 0.3304 0.6635 0.6713
vn -0.3009 0.6594 0.6889
vn -0.8037 0.5863 0.1017
vn -0.8717 0.1811 -0.4553
vn -0.1719 0.2102 -0.9624
vn -0.5788 0.6197 0.5301
vn -0.5988 0.5275 -0.6026
vn 0.0402 0.3393 -0.9398
vn 0.5105 0.5768 -0.6377
vn 0.4710 0.8455 0.2517
vn 0.4688 0.2565 0.8452
vn 0.2039 0.3902 0.8979
vn -0.1042 0.4050 0.9083
vn -0.9119 0.1526 -0.3808
vn -0.2140 0.1946 -0.9572
vn -0.6493 0.1872 0.7371
vn -0.7863 -0.0521 -0.6157
vn 0.6912 0.0749 0.7187
vn 0.2921 -0.0061 0.9564
vn -0.0026 0.0187 0.9998
vn -0.7771 0.0309 0.6286
vn 0.1797 0.0934 -0.9793
vn 0.7102 0.1374 -0.6904
vn 0.7156 -0.0579 -0.6961
vn 0.8333 -0.1555 0.5305
vn 0.2360 -0.2242 -0.9455
vn 0.8040 -0.2916 -0.5183
vn 0.7370 -0.2610 0.6234
vn -0.7645 0.0292 -0.6439
vn 0.7868 -0.2337 0.5712
vn -0.1996 -0.0317 0.9794
vn 0.5156 0.0901 0.8521
vn -0.6553 -0.0273 -0.7549
vn 0.9755 -0.1472 -0.1634
vn 0.2571 -0.0551 -0.9648
vn 0.9292 -0.2424 -0.2789
vn -0.0264 -0.9997 -0.0006
vn -0.1056 -0.9726 0.2073
vn -0.0873 -0.9839 0.1556
vn 0.7973 0.3445 -0.4957
vn 0.0054 -0.9870 0.1605
vn 0.0637 -0.9720 0.2263
vn -0.1512 -0.9718 0.1809
vn -0.1324 -0.9592 0.2497
vn 0.2361 0.9699 0.0591
vn -0.1781 0.9788 0.1015
vn -0.4565 0.8847 -0.0944
vn -0.4930 0.8047 -0.3306
vn -0.3017 0.7640 -0.5703
vn 0.2766 0.7751 -0.5681
vn 0.3807 0.0538 0.9231
vn -0.8926 -0.1108 0.4370
vn -0.6060 -0.0987 -0.7894
vn 0.0428 0.0117 -0.9990
vn 0.9521 0.1127 -0.2842
vn 0.8927 -0.0491 0.4479
vn 0.3097 0.1477 -0.9393
vn -0.7863 0.2185 0.5780
vn -0.9535 0.1854 0.2375
vn -0.7014 0.4693 -0.5365
vn 0.9220 0.1311 0.3643
vn 0.9308 -0.3652 -0.0173
vn -0.9778 -0.0398 0.2059
vn -0.7228 -0.3475 0.5973
vn -0.7484 -0.5580 0.3585
vn 0.0122 -0.7281 -0.6854
vn 0.0936 -0.6653 -0.7407
vn 0.6690 -0.7003 -0.2490
vn 0.7365 -0.6518 -0.1807
vn 0.6436 -0.3021 0.7032
vn 0.4237 0.8859 -0.1889
vn -0.3319 0.9409 -0.0671
vn 0.1354 -0.9809 0.1399
vn -0.9893 0.0387 0.1403
vn 0.2163 0.9135 -0.3446
vn -0.5238 0.7407 -0.4208
vn 0.9151 -0.3979 -0.0650
vn 0.8933 -0.4167 -0.1686
vn 0.0466 0.8640 -0.5013
vn -0.9970 0.0532 -0.0570
vn -0.0800 -0.9966 -0.0194
vn 0.0150 0.5781 -0.8158
vn -0.6470 0.1389 -0.7497
vn -0.1466 -0.8867 -0.4384
vn 0.3190 -0.0097 -0.9477
vn 0.0974 -0.7755 0.6238
vn -0.2761 -0.6049 0.7469
vn -0.5205 -0.7622 0.3848
vn -0.5995 -0.7688 0.2226
vn -0.2722 -0.9511 -0.1461
vn 0.0171 -0.9986 -0.0504
vn 0.0482 -0.9988 -0.0040
vn 0.4913 -0.8572 0.1546
vn 0.9957 0.0483 0.0796
vn -0.9701 -0.2243 0.0926
vn -0.6817 -0.0185 -0.7314
vn 0.6809 -0.0877 -0.7271
vn 0.8789 -0.0312 0.4761
vn -0.2125 0.1340 0.9679
vn -0.9267 0.0692 0.3695
vn -0.9628 -0.0034 -0.2701
vn -0.0933 -0.0921 -0.9914
vn 0.8835 0.1247 -0.4515
vn 0.8962 0.2524 0.3648
vn -0.6445 0.3019 0.7025
vn -0.9622 0.2649 -0.0626
vn 0.3406 0.5756 -0.7434
vn 0.8871 0.2699 0.3744
vn -0.9941 -0.0804 0.0726
vn -0.8589 -0.5102 0.0440
vn -0.3813 -0.1555 0.9113
vn -0.8303 -0.5571 -0.0124
vn -0.1432 -0.7202 -0.6788
vn 0.6883 -0.7135 -0.1306
vn 0.7758 -0.6119 0.1539
vn 0.8541 -0.3993 0.3332
vn 0.8428 -0.1890 0.5040
vn 0.1727 0.9027 -0.3941
vn -0.9015 0.2394 -0.3606
vn 0.7731 -0.6012 0.2021
vn -0.2534 -0.9668 0.0325
vn -0.8761 -0.4773 0.0677
vn 0.8058 0.5922 -0.0011
vn 0.9575 -0.2466 0.1498
vn 0.9827 -0.1786 -0.0480
vn -0.9518 0.1868 -0.2431
vn 0.5435 0.7797 -0.3110
vn 0.3091 0.8719 -0.3797
vn -0.6566 0.5287 -0.5379
vn 0.0126 -0.9963 -0.0846
vn -0.7448 -0.4451 -0.4971
vn -0.0049 0.2937 -0.9559
vn 0.1129 0.3487 -0.9304
vn 0.0997 -0.9800 -0.1721
vn 0.9003 -0.0325 -0.4340
vn -0.0980 -0.7845 -0.6123
vn 0.7774 0.2167 0.5905
vn -0.0474 -0.1635 0.9854
vn -0.5303 -0.4609 0.7116
vn -0.6165 -0.7859 0.0489
vn -0.2723 -0.9385 -0.2125
vn 0.8829 -0.3856 -0.2679
vn 0.9799 0.0809 0.1825
vn 0.0875 -0.9947 0.0532
vn 0.0982 -0.9559 0.2767
vn 0.2992 -0.9169 0.2642
vn -0.0212 -0.9914 0.1288
usemtl wire_088144225
s 1
f 1/1/1 2/2/1 3/3/1 4/4/1
f 5/5/2 1/1/2 4/4/2 6/6/2
f 7/7/3 5/5/3 6/6/3
f 8/8/4 7/7/4 6/6/4 9/9/4
f 10/10/5 8/8/5 9/9/5 11/11/5
f 12/12/6 10/10/6 11/11/6 13/13/6
f 2/2/7 12/12/7 13/13/7 3/3/7
f 7/7/8 8/8/8 14/14/8
f 15/15/9 14/14/9 8/8/9 10/10/9
f 12/12/10 15/15/10 10/10/10
f 16/16/11 17/17/11 5/5/11 7/7/11
f 18/18/12 16/16/12 7/7/12 14/14/12
f 18/18/13 14/14/13 19/19/13
f 20/20/14 19/19/14 14/14/14 15/15/14
f 12/12/15 20/20/15 15/15/15
f 17/17/16 21/21/16 1/1/16 5/5/16
f 22/22/17 23/23/17 20/20/17 12/12/17
f 24/24/18 22/22/18 12/12/18 2/2/18
f 21/21/19 24/24/19 2/2/19 1/1/19
f 19/19/20 20/20/20 23/23/20
f 25/25/21 26/26/21 21/21/21 17/17/21
f 27/27/22 25/25/22 17/17/22 16/16/22
f 18/18/23 27/27/23 16/16/23
f 28/28/24 29/29/24 18/18/24 19/19/24
f 30/30/25 28/28/25 19/19/25 23/23/25
f 31/31/26 30/30/26 23/23/26 22/22/26
f 24/24/27 31/31/27 22/22/27
f 26/26/28 32/32/28 24/24/28 21/21/28
f 33/33/29 34/34/29 30/30/29 31/31/29
f 32/32/30 33/33/30 31/31/30 24/24/30
f 35/35/31 36/36/31 26/26/31 25/25/31
f 37/37/32 35/35/32 25/25/32 27/27/32
f 29/29/33 37/37/33 27/27/33 18/18/33
f 37/37/34 29/29/34 38/38/34
f 29/29/35 28/28/35 38/38/35
f 34/34/36 38/38/36 28/28/36 30/30/36
f 32/32/37 39/39/37 33/33/37
f 36/36/38 40/40/38 32/32/38 26/26/38
f 34/34/39 33/33/39 39/39/39
f 40/40/40 41/41/40 39/39/40 32/32/40
f 42/42/41 43/43/41 37/37/41 38/38/41
f 42/42/42 38/38/42 44/44/42
f 34/34/43 44/44/43 38/38/43
f 41/41/44 45/45/44 34/34/44 39/39/44
f 46/46/45 40/40/45 36/36/45 35/35/45
f 43/43/46 46/46/46 35/35/46 37/37/46
f 46/46/47 43/43/47 47/47/47
f 42/42/48 47/47/48 43/43/48
f 48/48/49 49/49/49 40/40/49 46/46/49
f 50/50/50 48/48/50 46/46/50 47/47/50
f 42/42/51 50/50/51 47/47/51
f 41/41/52 40/40/52 51/51/52
f 50/50/53 42/42/53 44/44/53
f 45/45/54 52/52/54 44/44/54 34/34/54
f 53/53/55 54/54/55 50/50/55 44/44/55
f 51/51/56 40/40/56 49/49/56
f 50/50/57 55/55/57 48/48/57
f 49/49/58 48/48/58 55/55/58
f 54/54/59 56/56/59 55/55/59 50/50/59
f 56/56/60 57/57/60 49/49/60 55/55/60
f 45/45/61 41/41/61 51/51/61
f 53/53/62 44/44/62 52/52/62
f 56/56/63 54/54/63 58/58/63
f 57/57/64 59/59/64 51/51/64 49/49/64
f 59/59/65 60/60/65 51/51/65
f 60/60/66 61/61/66 45/45/66 51/51/66
f 61/61/67 62/62/67 52/52/67 45/45/67
f 9/9/68 6/6/68 63/63/68
f 11/11/69 9/9/69 63/63/69
f 13/13/70 11/11/70 63/63/70
f 3/3/71 13/13/71 63/63/71
f 4/4/72 3/3/72 63/63/72
f 6/6/73 4/4/73 63/63/73
f 64/64/74 65/65/74 66/66/74
f 67/67/75 66/66/75 65/65/75 68/68/75
f 69/69/76 67/67/76 68/68/76 70/70/76
f 71/71/77 69/69/77 70/70/77
f 71/71/78 72/72/78 73/73/78
f 66/66/79 73/73/79 72/72/79 64/64/79
f 73/73/80 74/74/80 69/69/80 71/71/80
f 75/75/81 76/76/81 66/66/81 67/67/81
f 77/77/82 75/75/82 67/67/82
f 74/74/83 77/77/83 67/67/83 69/69/83
f 76/76/84 78/78/84 73/73/84 66/66/84
f 78/78/85 79/79/85 73/73/85
f 75/75/86 77/77/86 80/80/86
f 81/81/87 82/82/87 76/76/87 75/75/87
f 83/83/88 81/81/88 75/75/88 80/80/88
f 84/84/89 83/83/89 80/80/89 79/79/89
f 79/79/90 85/85/90 84/84/90
f 86/86/91 85/85/91 79/79/91
f 78/78/92 86/86/92 79/79/92
f 78/78/93 76/76/93 82/82/93
f 73/73/94 87/87/94 74/74/94
f 87/87/95 88/88/95 77/77/95 74/74/95
f 89/89/96 90/90/96 79/79/96 80/80/96
f 88/88/97 89/89/97 80/80/97 77/77/97
f 91/91/98 92/92/98 87/87/98 73/73/98
f 92/92/99 93/93/99 88/88/99 87/87/99
f 79/79/100 91/91/100 73/73/100
f 90/90/101 94/94/101 91/91/101 79/79/101
f 92/92/102 91/91/102 94/94/102
f 88/88/103 93/93/103 89/89/103
f 90/90/104 89/89/104 93/93/104
f 92/92/105 94/94/105 95/95/105
f 93/93/106 92/92/106 95/95/106
f 90/90/107 93/93/107 95/95/107
f 94/94/108 90/90/108 95/95/108
f 96/96/109 97/97/109 65/65/109 64/64/109
f 97/97/110 98/98/110 65/65/110
f 98/98/111 99/99/111 68/68/111 65/65/111
f 99/99/112 100/100/112 68/68/112
f 100/100/113 101/101/113 70/70/113 68/68/113
f 101/101/114 102/102/114 71/71/114 70/70/114
f 72/72/115 71/71/115 102/102/115
f 72/72/116 96/96/116 64/64/116
f 103/103/117 104/104/117 105/105/117 106/106/117
f 107/107/118 108/108/118 109/109/118
f 110/110/119 109/109/119 108/108/119
f 106/106/120 111/111/120 110/110/120 103/103/120
f 112/112/121 106/106/121 105/105/121 113/113/121
f 114/114/122 112/112/122 113/113/122 115/115/122
f 116/116/123 114/114/123 115/115/123 107/107/123
f 117/117/124 116/116/124 107/107/124 109/109/124
f 111/111/125 117/117/125 109/109/125 110/110/125
f 118/118/126 119/119/126 111/111/126 106/106/126
f 106/106/127 112/112/127 120/120/127
f 114/114/128 120/120/128 112/112/128
f 121/121/129 122/122/129 116/116/129 117/117/129
f 119/119/130 121/121/130 117/117/130 111/111/130
f 106/106/131 120/120/131 118/118/131
f 114/114/132 116/116/132 122/122/132
f 114/114/133 122/122/133 123/123/133
f 124/124/134 125/125/134 120/120/134 114/114/134
f 126/126/135 124/124/135 114/114/135 123/123/135
f 127/127/136 126/126/136 123/123/136
f 128/128/137 129/129/137 127/127/137
f 130/130/138 129/129/138 128/128/138
f 131/131/139 130/130/139 128/128/139 118/118/139
f 125/125/140 131/131/140 118/118/140 120/120/140
f 119/119/141 132/132/141 121/121/141
f 132/132/142 133/133/142 122/122/142 121/121/142
f 128/128/143 127/127/143 134/134/143
f 135/135/144 134/134/144 127/127/144 123/123/144
f 122/122/145 135/135/145 123/123/145
f 119/119/146 118/118/146 136/136/146
f 128/128/147 136/136/147 118/118/147
f 134/134/148 137/137/148 136/136/148 128/128/148
f 135/135/149 122/122/149 133/133/149
f 119/119/150 136/136/150 137/137/150
f 132/132/151 119/119/151 137/137/151
f 132/132/152 138/138/152 133/133/152
f 139/139/153 134/134/153 135/135/153
f 138/138/154 139/139/154 135/135/154 133/133/154
f 132/132/155 137/137/155 140/140/155
f 138/138/156 132/132/156 140/140/156
f 134/134/157 139/139/157 140/140/157
f 137/137/158 134/134/158 140/140/158
f 139/139/159 138/138/159 140/140/159
f 141/141/160 142/142/160 113/113/160 105/105/160
f 142/142/161 143/143/161 115/115/161 113/113/161
f 143/143/162 144/144/162 107/107/162 115/115/162
f 144/144/163 145/145/163 108/108/163 107/107/163
f 145/145/164 146/146/164 110/110/164 108/108/164
f 103/103/165 110/110/165 146/146/165
f 104/104/166 141/141/166 105/105/166
f 147/147/167 144/144/167 72/72/167 102/102/167
f 144/144/168 148/148/168 96/96/168 72/72/168
f 144/144/169 143/143/169 148/148/169
f 144/144/170 147/147/170 145/145/170
