# Blender v2.79 (sub 0) OBJ File: 'low-people-6.blend'
# www.blender.org
mtllib low-people-6.mtl
o LowPeople07
v 0.026297 5.737564 0.867607
v 0.300015 5.217633 0.671906
v 0.781780 5.222043 1.273578
v 1.362911 5.274603 0.796093
v 1.271799 5.761323 0.722609
v 1.467768 5.839354 0.304374
v 1.633441 5.291973 0.195750
v 1.268153 5.640183 -0.414869
v 0.226994 5.193784 0.183145
v -0.033068 5.712364 0.405443
v 0.236066 5.695354 -0.391438
v 1.049602 5.716953 -0.549838
v 1.400945 4.851693 -0.220442
v 0.830180 4.574944 -0.386345
v 0.459771 3.387124 0.596108
v 0.419267 4.601133 0.651133
v 0.855559 4.744683 1.172925
v 1.347504 4.730464 0.689691
v 1.471399 4.715163 0.311532
v 0.914412 4.534353 0.578400
v 1.095038 4.455063 0.422969
v 1.211868 4.500243 -0.100314
v 0.654090 3.368404 -0.053841
v 0.465975 3.350044 0.235211
v 0.964139 3.956284 0.648883
v 1.302019 3.411603 0.279200
v 1.172556 3.398823 0.046923
v 0.888039 3.412774 -0.123429
v 1.006560 3.445354 0.796829
v 1.240073 3.425284 0.578273
v 0.933818 1.350694 0.216844
v 0.781544 1.324324 0.241066
v 0.665508 1.340524 0.338215
v 0.674434 1.351143 0.772229
v 0.937991 0.660124 0.943321
v 1.111983 1.351503 0.538387
v 1.113126 1.356094 0.382569
v 1.152414 0.786394 0.472449
v 1.065758 0.838953 0.117575
v 0.914364 0.728973 -0.097613
v 0.698053 0.760293 -0.041132
v 0.597704 0.868384 0.215358
v 1.361643 0.211024 -1.118954
v 1.519542 0.168813 -0.793206
v 1.325825 0.021574 -0.909119
v 0.900543 0.010774 -1.009217
v 0.857358 0.228573 -1.006193
v 1.086826 0.283564 -1.194605
v 0.947749 0.359794 -0.964579
v 1.162844 0.363843 -1.147805
v 1.092215 0.413884 -0.911999
v 1.264616 0.335584 -1.136890
v 1.397819 0.325233 -0.101077
v 1.357691 -0.049256 -0.011408
v 0.793242 -0.053936 -0.612944
v 0.746296 0.263854 -0.648280
v 0.876249 0.421443 -0.632175
v 1.057822 0.471124 -0.591094
v 1.039993 -0.101636 -0.061839
v 0.532704 0.115714 1.019588
v 0.563857 0.532773 0.121926
v 1.255240 0.493084 0.072573
v 1.367808 0.117874 0.391931
v 0.962631 0.060364 1.120413
v -0.474465 13.019823 -0.295979
v -0.340880 13.435173 -0.497300
v -0.449970 13.410063 -0.781109
v -0.602471 12.807424 -0.813792
v -0.311002 13.448763 -1.051805
v 0.083814 12.865563 -1.350936
v 0.166765 13.571074 -0.959497
v 0.476018 13.274254 -1.161472
v 0.181725 13.572603 -0.739342
v 0.631787 13.309713 -0.719456
v 0.435119 13.254454 -0.289453
v -0.073001 13.504293 -0.496081
v -0.006475 13.138264 -0.078571
v -0.259781 12.608524 -1.275059
v 0.102658 12.412953 -1.528511
v 0.499542 12.373264 -1.190187
v -0.415606 12.265354 -0.368576
v 0.016175 12.088503 -0.148721
v 0.450546 12.062674 -0.315404
v 0.098321 11.913274 -1.352328
v 0.482770 11.966373 -1.140064
v 0.577833 12.012633 -0.729424
v -0.383879 12.043774 -0.180242
v -0.508922 12.021274 -0.794981
v -0.300292 11.976183 -1.156204
v -0.544719 11.905983 0.067063
v -1.137769 11.644534 -0.391465
v -0.660486 11.506113 -0.720499
v 0.049407 11.436363 -0.824921
v 0.717137 11.521414 -0.750809
v 1.007520 11.686473 -0.425756
v -1.480879 10.763614 -0.440611
v 1.299510 9.911043 -1.130850
v 1.599021 10.825983 -0.029168
v 0.676114 10.991673 0.533048
v -1.134163 11.063944 0.796769
v -1.619663 9.822933 1.509931
v 0.050238 9.925803 1.058002
v -1.155384 8.931394 1.059855
v -1.426899 8.950924 -0.195868
v -0.693232 9.000244 -1.054048
v 0.218640 9.039844 -1.218055
v 1.404279 9.086193 -1.211359
v 1.825443 9.073593 0.000604
v 0.793763 8.126253 1.018780
v 0.813992 8.013933 -0.918159
v 1.441252 8.088094 0.045035
v -1.916738 8.252974 -0.204864
v -1.022290 8.097183 -1.010396
v 0.756797 6.229504 1.275249
v -0.168531 7.229403 1.395633
v -0.991443 5.711554 1.256584
v -1.413338 5.806324 0.336153
v -0.857120 6.695794 -0.656808
v -0.843389 5.674924 -0.585939
v 0.014716 6.057064 -0.511156
v -0.302468 5.208814 0.898744
v -0.816565 4.539664 -0.463804
v -1.208505 4.476754 -0.003657
v -1.335519 5.190993 -0.265000
v -0.160996 5.696434 -0.163756
v -0.356983 4.503123 0.412616
v -0.437676 3.898233 -0.009253
v -0.587578 4.656934 0.756576
v -0.949268 4.773574 1.282710
v -1.344583 4.873474 0.799595
v -1.180853 4.471174 0.365563
v -0.635155 4.535524 0.649886
v -0.886459 3.363544 -0.184226
v -0.630566 3.900574 0.665214
v -0.446654 3.348783 0.430189
v -0.944297 3.399273 0.789297
v -1.230148 3.417994 0.674762
v -1.328120 3.416104 0.375296
v -1.250249 3.398823 0.028213
v -1.127964 1.334584 0.270522
v -0.914812 1.328733 0.165528
v -0.710933 1.332874 0.290970
v -0.657490 1.341784 0.505298
v -0.731788 1.351414 0.716362
v -1.027215 0.684154 0.890488
v -1.180902 1.343764 0.474110
v -1.182364 0.836614 0.363669
v -1.114376 0.885574 0.152590
v -0.930836 0.890254 -0.024576
v -0.618263 0.858483 0.401962
v -0.648013 0.776854 0.115112
v -1.482039 0.212824 -0.745866
v -1.322168 0.254583 -1.116477
v -1.163565 0.085204 -1.154658
v -1.241417 -0.055017 -0.442162
v -0.845585 0.106534 -1.187878
v -0.989295 0.439534 -1.131773
v -0.747294 0.212823 -0.828527
v -0.949663 0.435304 -0.779061
v -1.211485 0.492814 -0.475545
v -0.691381 -0.026216 -0.444826
v -0.772839 0.412714 -0.471393
v -1.370655 0.342333 -0.001391
v -1.302631 -0.022706 0.085868
v -0.648471 0.070533 0.031779
v -1.386836 0.122104 0.492530
v -1.099860 0.025264 1.040343
v -0.555709 0.013204 0.599519
v -0.711702 0.070714 1.026260
v -0.099263 13.617784 -0.773348
v -1.013946 0.204093 -1.354217
v 1.196428 0.233434 -1.317020
vt 1.000000 1.000000
vt 1.000000 1.000000
vt 1.000000 1.000000
vt 1.000000 1.000000
vt 1.000000 1.000000
vt 1.000000 1.000000
vt 1.000000 1.000000
vt 1.000000 1.000000
vt 1.000000 1.000000
vt 1.000000 1.000000
vt 1.000000 1.000000
vt 1.000000 1.000000
vt 1.000000 1.000000
vt 1.000000 1.000000
vt 1.000000 1.000000
vt 1.000000 1.000000
vt 1.000000 1.000000
vt 1.000000 1.000000
vt 1.000000 1.000000
vt 1.000000 1.000000
vt 1.000000 1.000000
vt 1.000000 1.000000
vt 1.000000 1.000000
vt 1.000000 1.000000
vt 1.000000 1.000000
vt 1.000000 1.000000
vt 1.000000 1.000000
vt 1.000000 1.000000
vt 1.000000 1.000000
vt 1.000000 1.000000
vt 1.000000 1.000000
vt 1.000000 1.000000
vt 1.000000 1.000000
vt 1.000000 1.000000
vt 1.000000 1.000000
vt 1.000000 1.000000
vt 1.000000 1.000000
vt 1.000000 1.000000
vt 1.000000 1.000000
vt 1.000000 1.000000
vt 1.000000 1.000000
vt 1.000000 1.000000
vt 1.000000 1.000000
vt 1.000000 1.000000
vt 1.000000 1.000000
vt 1.000000 1.000000
vt 1.000000 1.000000
vt 1.000000 1.000000
vt 1.000000 1.000000
vt 1.000000 1.000000
vt 1.000000 1.000000
vt 1.000000 1.000000
vt 1.000000 1.000000
vt 1.000000 1.000000
vt 1.000000 1.000000
vt 1.000000 1.000000
vt 1.000000 1.000000
vt 1.000000 1.000000
vt 1.000000 1.000000
vt 1.000000 1.000000
vt 1.000000 1.000000
vt 1.000000 1.000000
vt 1.000000 1.000000
vt 1.000000 1.000000
vt 1.000000 1.000000
vt 1.000000 1.000000
vt 1.000000 1.000000
vt 1.000000 1.000000
vt 1.000000 1.000000
vt 1.000000 1.000000
vt 1.000000 1.000000
vt 1.000000 1.000000
vt 1.000000 1.000000
vt 1.000000 1.000000
vt 1.000000 1.000000
vt 1.000000 1.000000
vt 1.000000 1.000000
vt 1.000000 1.000000
vt 1.000000 1.000000
vt 1.000000 1.000000
vt 1.000000 1.000000
vt 1.000000 1.000000
vt 1.000000 1.000000
vt 1.000000 1.000000
vt 1.000000 1.000000
vt 1.000000 1.000000
vt 1.000000 1.000000
vt 1.000000 1.000000
vt 1.000000 1.000000
vt 1.000000 1.000000
vt 1.000000 1.000000
vt 1.000000 1.000000
vt 1.000000 1.000000
vt 1.000000 1.000000
vt 1.000000 1.000000
vt 1.000000 1.000000
vt 1.000000 1.000000
vt 1.000000 1.000000
vt 1.000000 1.000000
vt 1.000000 1.000000
vt 1.000000 1.000000
vt 1.000000 1.000000
vt 1.000000 1.000000
vt 1.000000 1.000000
vt 1.000000 1.000000
vt 1.000000 1.000000
vt 1.000000 1.000000
vt 1.000000 1.000000
vt 1.000000 1.000000
vt 1.000000 1.000000
vt 1.000000 1.000000
vt 1.000000 1.000000
vt 1.000000 1.000000
vt 1.000000 1.000000
vt 1.000000 1.000000
vt 1.000000 1.000000
vt 1.000000 1.000000
vt 1.000000 1.000000
vt 1.000000 1.000000
vt 1.000000 1.000000
vt 1.000000 1.000000
vt 1.000000 1.000000
vt 1.000000 1.000000
vt 1.000000 1.000000
vt 1.000000 1.000000
vt 1.000000 1.000000
vt 1.000000 1.000000
vt 1.000000 1.000000
vt 1.000000 1.000000
vt 1.000000 1.000000
vt 1.000000 1.000000
vt 1.000000 1.000000
vt 1.000000 1.000000
vt 1.000000 1.000000
vt 1.000000 1.000000
vt 1.000000 1.000000
vt 1.000000 1.000000
vt 1.000000 1.000000
vt 1.000000 1.000000
vt 1.000000 1.000000
vt 1.000000 1.000000
vt 1.000000 1.000000
vt 1.000000 1.000000
vt 1.000000 1.000000
vt 1.000000 1.000000
vt 1.000000 1.000000
vt 1.000000 1.000000
vt 1.000000 1.000000
vt 1.000000 1.000000
vt 1.000000 1.000000
vt 1.000000 1.000000
vt 1.000000 1.000000
vt 1.000000 1.000000
vt 1.000000 1.000000
vt 1.000000 1.000000
vt 1.000000 1.000000
vt 1.000000 1.000000
vt 1.000000 1.000000
vt 1.000000 1.000000
vt 1.000000 1.000000
vt 1.000000 1.000000
vt 1.000000 1.000000
vt 1.000000 1.000000
vt 1.000000 1.000000
vt 1.000000 1.000000
vt 1.000000 1.000000
vt 1.000000 1.000000
vt 1.000000 1.000000
vt 1.000000 1.000000
vt 1.000000 1.000000
vt 1.000000 1.000000
vt 1.000000 1.000000
vn -0.6537 -0.5427 0.5274
vn 0.6056 0.2285 0.7622
vn 0.8825 0.2048 0.4234
vn 0.8806 0.3334 -0.3367
vn -0.8986 -0.3235 -0.2966
vn -0.8551 -0.4978 0.1447
vn 0.3906 -0.1847 -0.9018
vn -0.1874 -0.1038 -0.9768
vn -0.9745 -0.1612 -0.1561
vn -0.9573 -0.0949 0.2732
vn -0.7452 -0.2020 0.6355
vn 0.6651 -0.1117 0.7384
vn 0.9182 -0.1423 0.3698
vn 0.9125 -0.1091 -0.3943
vn 0.2815 -0.8615 0.4226
vn 0.5983 -0.7684 0.2271
vn 0.7145 -0.6940 -0.0881
vn 0.4558 -0.4975 -0.7381
vn -0.0793 -0.9422 0.3255
vn -0.9459 -0.1670 -0.2780
vn 0.0152 0.0094 0.9998
vn 0.6813 0.1461 0.7173
vn 0.9969 0.0779 -0.0133
vn 0.5785 -0.1283 -0.8055
vn -0.3369 -0.2041 -0.9192
vn -0.3569 0.2324 0.9048
vn 0.6219 0.2234 0.7505
vn 0.9672 0.1653 0.1928
vn 0.5004 -0.1673 -0.8495
vn 0.5047 -0.1296 -0.8535
vn -0.2056 -0.1581 -0.9658
vn -0.7793 -0.1232 -0.6144
vn -0.9948 -0.1012 0.0095
vn -0.3839 0.0501 0.9220
vn 0.8479 -0.0227 0.5297
vn 0.9876 -0.0737 0.1384
vn 0.7869 -0.1223 -0.6049
vn 0.9083 0.0162 0.4180
vn 0.9975 0.0703 0.0094
vn 0.8864 0.1442 -0.4398
vn 0.6982 0.3056 -0.6474
vn -0.1847 0.4545 -0.8714
vn -0.7473 0.3337 -0.5746
vn -0.9903 0.1378 0.0170
vn 0.6947 -0.5888 -0.4131
vn 0.1705 -0.7457 -0.6441
vn -0.6146 -0.1110 -0.7810
vn -0.5940 0.5845 -0.5528
vn -0.3461 0.8545 -0.3874
vn 0.2775 0.9533 -0.1192
vn 0.7726 0.5583 -0.3022
vn 0.9087 -0.4110 0.0735
vn 0.0856 -0.9914 -0.0989
vn -0.9438 -0.1757 -0.2801
vn -0.7351 0.6170 -0.2810
vn -0.2408 0.9473 -0.2114
vn 0.2467 0.9583 -0.1445
vn 0.1862 -0.9682 -0.1672
vn -0.2989 -0.9529 0.0513
vn -0.9692 -0.2011 -0.1420
vn -0.8198 0.4097 -0.4001
vn -0.1141 0.8467 -0.5198
vn 0.4713 0.8657 -0.1688
vn 0.6613 0.7461 -0.0776
vn 0.9779 0.1648 0.1288
vn 0.3324 -0.9205 0.2052
vn -0.1553 -0.9800 0.1241
vn 0.0080 0.8872 -0.4613
vn -0.9928 0.1180 0.0204
vn -0.9945 0.0819 0.0660
vn 0.6227 0.4265 -0.6560
vn 0.8610 0.4896 -0.1377
vn 0.9217 0.2626 0.2854
vn 0.8536 0.1794 0.4890
vn -0.1292 0.2313 0.9643
vn -0.8778 0.2086 -0.4313
vn -0.9366 0.2946 0.1897
vn -0.8764 0.2443 -0.4150
vn -0.0139 0.4864 -0.8736
vn 0.5532 0.8116 -0.1880
vn 0.4673 0.8243 0.3197
vn 0.1615 0.8029 0.5738
vn -0.3645 0.5972 0.7145
vn -0.7718 0.1189 -0.6247
vn -0.3634 0.2185 -0.9056
vn -0.4236 0.3155 -0.8491
vn 0.5021 0.1456 -0.8525
vn 0.9417 0.0353 -0.3347
vn -0.4400 -0.0906 0.8934
vn -0.9553 -0.1012 0.2777
vn 0.3984 -0.0325 0.9166
vn 0.5653 -0.2121 -0.7971
vn 0.9784 -0.0454 -0.2017
vn 0.9335 -0.0196 0.3582
vn -0.1308 0.6311 0.7646
vn -0.9657 -0.0685 0.2506
vn -0.8390 -0.0835 -0.5376
vn -0.5465 -0.1909 -0.8154
vn -0.1333 0.9001 0.4148
vn -0.4867 0.8683 0.0959
vn -0.6923 0.1004 -0.7146
vn -0.2730 -0.6254 -0.7309
vn 0.2780 -0.6486 -0.7085
vn 0.8242 0.2557 -0.5053
vn 0.5684 0.8193 0.0757
vn -0.5022 0.2419 -0.8302
vn -0.0236 0.1779 -0.9838
vn 0.7428 0.3491 -0.5713
vn 0.5021 0.6085 0.6145
vn 0.3107 0.6296 0.7121
vn 0.1343 0.5864 0.7988
vn -0.8002 0.5379 0.2652
vn -0.8904 0.4315 0.1448
vn 0.1816 0.3957 0.9003
vn -0.9822 -0.1871 -0.0154
vn -0.7523 -0.1101 -0.6495
vn -0.3007 0.1297 -0.9449
vn -0.0484 0.1587 -0.9861
vn 0.9320 0.1265 -0.3396
vn 0.5905 0.1329 0.7960
vn 0.4508 0.1671 0.8768
vn 0.2658 -0.3206 0.9092
vn 0.8111 -0.4462 -0.3783
vn 0.7930 -0.2849 0.5385
vn -0.8058 0.5632 0.1830
vn -0.6652 0.3257 -0.6718
vn -0.1777 0.0172 -0.9839
vn 0.0283 -0.2653 -0.9638
vn 0.8323 0.0583 0.5512
vn 0.2733 0.1084 0.9558
vn -0.1779 0.0902 0.9799
vn -0.8741 -0.0399 0.4840
vn -0.6902 -0.2755 -0.6691
vn 0.0378 -0.2403 -0.9700
vn 0.0195 -0.1017 0.9946
vn -0.8527 -0.0476 -0.5203
vn 0.1163 -0.0672 -0.9909
vn 0.0111 -0.2079 -0.9781
vn 0.3557 -0.1670 0.9195
vn 0.8444 -0.5297 -0.0796
vn -0.5701 -0.2120 -0.7937
vn 0.5263 -0.0787 -0.8467
vn 0.9766 -0.1994 -0.0807
vn 0.8650 -0.3282 0.3795
vn 0.5801 -0.1568 0.7993
vn -0.8562 0.0827 0.5100
vn -0.9542 0.1384 -0.2651
vn -0.6360 -0.6707 0.3817
vn -0.9684 -0.2456 -0.0428
vn 0.4244 -0.6858 0.5912
vn 0.0455 -0.9273 0.3714
vn 0.6120 -0.1836 -0.7692
vn 0.7020 -0.0203 0.7119
vn -0.4637 0.0180 0.8858
vn 0.9939 -0.0784 -0.0777
vn -0.2362 0.3117 0.9204
vn -0.9421 0.1343 0.3074
vn -0.9937 0.0867 -0.0711
vn -0.6617 -0.0704 -0.7464
vn -0.4850 -0.1359 -0.8639
vn 0.5146 -0.1529 -0.8437
vn 0.9796 -0.1171 -0.1635
vn 0.8405 -0.0426 0.5401
vn 0.3618 0.0043 0.9323
vn -0.3690 0.0459 0.9283
vn -0.9558 -0.0507 0.2895
vn -0.9705 -0.0819 -0.2266
vn 0.4769 0.0182 0.8788
vn -0.9620 -0.0554 0.2673
vn -0.9600 0.0535 -0.2748
vn -0.5569 0.2737 -0.7842
vn 0.4895 0.3318 -0.8065
vn 0.9714 0.1459 -0.1876
vn 0.9433 0.0056 0.3318
vn -0.6287 -0.7326 -0.2611
vn 0.0501 -0.9813 -0.1860
vn 0.0470 -0.9811 -0.1876
vn 0.0462 -0.9811 -0.1880
vn 0.8360 0.4202 -0.3530
vn 0.7295 0.6800 -0.0738
vn 0.2024 0.9793 -0.0110
vn -0.5395 0.8154 -0.2099
vn 0.0505 -0.9813 -0.1858
vn 0.9652 -0.1343 -0.2243
vn 0.9831 0.1806 -0.0308
vn 0.6606 0.6743 -0.3301
vn -0.9154 -0.3932 0.0861
vn 0.0525 -0.9964 0.0671
vn 0.1536 -0.9710 0.1833
vn 0.9688 0.1044 -0.2248
vn 0.6283 0.6321 -0.4534
vn -0.3722 0.7989 -0.4724
vn -0.8162 0.5703 -0.0930
vn -0.9694 -0.2107 -0.1257
vn -0.5812 -0.7972 0.1635
vn 0.0602 -0.9980 -0.0178
vn 0.9913 0.0229 -0.1296
vn -0.4338 0.7926 -0.4285
vn 0.1208 -0.9770 0.1758
vn 0.9568 0.1021 0.2721
vn 0.5181 0.3107 -0.7969
vn -0.8707 0.4600 -0.1738
vn -0.8802 0.4436 0.1689
vn -0.8520 0.2036 0.4823
vn 0.0282 0.2298 0.9728
vn -0.9410 0.1267 0.3138
vn 0.8995 0.0605 0.4328
vn 0.8960 0.0200 -0.4436
vn -0.1010 -0.1964 -0.9753
vn 0.8133 -0.5573 -0.1672
vn -0.1448 -0.4949 0.8568
vn 0.7672 0.0953 0.6342
vn 0.5013 -0.0866 -0.8610
vn -0.7856 -0.5646 -0.2533
vn 0.3753 -0.7314 -0.5694
vn -0.2320 0.8923 0.3872
vn -0.5079 0.8530 0.1198
vn -0.5026 0.8537 -0.1360
vn -0.1449 0.8909 -0.4306
vn 0.1608 0.9868 -0.0178
vn 0.1040 0.9239 0.3683
vn 0.7501 0.4110 -0.5181
vn -0.3926 0.6530 -0.6477
vn -0.5990 -0.4053 -0.6906
vn 0.0045 -0.8606 -0.5093
vn 0.3013 -0.8864 -0.3516
vn -0.7356 0.0428 -0.6761
vn -0.3636 0.7016 -0.6128
vn 0.2776 0.7868 -0.5513
vn 0.7030 0.4708 -0.5331
usemtl wire_088144225
s 1
f 1/1/1 2/2/1 3/3/1
f 4/4/2 5/5/2 3/3/2
f 6/6/3 5/5/3 4/4/3 7/7/3
f 6/6/4 7/7/4 8/8/4
f 9/9/5 10/10/5 11/11/5
f 1/1/6 10/10/6 9/9/6 2/2/6
f 12/12/7 8/8/7 13/13/7 14/14/7
f 12/12/8 14/14/8 11/11/8
f 15/15/9 9/9/9 11/11/9
f 2/2/10 9/9/10 15/15/10 16/16/10
f 3/3/11 2/2/11 16/16/11 17/17/11
f 4/4/12 3/3/12 17/17/12 18/18/12
f 7/7/13 4/4/13 18/18/13 19/19/13
f 8/8/14 7/7/14 19/19/14 13/13/14
f 18/18/15 17/17/15 20/20/15 21/21/15
f 21/21/16 19/19/16 18/18/16
f 13/13/17 19/19/17 21/21/17 22/22/17
f 13/13/18 22/22/18 14/14/18
f 20/20/19 17/17/19 16/16/19
f 15/15/20 11/11/20 23/23/20 24/24/20
f 20/20/21 16/16/21 15/15/21 25/25/21
f 20/20/22 25/25/22 21/21/22
f 22/22/23 21/21/23 26/26/23 27/27/23
f 22/22/24 27/27/24 14/14/24
f 11/11/25 14/14/25 28/28/25 23/23/25
f 29/29/26 25/25/26 15/15/26
f 21/21/27 25/25/27 29/29/27 30/30/27
f 21/21/28 30/30/28 26/26/28
f 28/28/29 14/14/29 27/27/29
f 31/31/30 28/28/30 27/27/30
f 23/23/31 28/28/31 31/31/31 32/32/31
f 24/24/32 23/23/32 32/32/32 33/33/32
f 15/15/33 24/24/33 33/33/33 34/34/33
f 29/29/34 15/15/34 34/34/34 35/35/34
f 30/30/35 29/29/35 35/35/35 36/36/35
f 26/26/36 30/30/36 36/36/36 37/37/36
f 27/27/37 26/26/37 37/37/37 31/31/37
f 38/38/38 36/36/38 35/35/38
f 38/38/39 37/37/39 36/36/39
f 31/31/40 37/37/40 38/38/40 39/39/40
f 31/31/41 39/39/41 40/40/41
f 32/32/42 31/31/42 40/40/42 41/41/42
f 33/33/43 32/32/43 41/41/43 42/42/43
f 33/33/44 42/42/44 34/34/44
f 43/43/45 44/44/45 45/45/45
f 43/43/46 45/45/46 46/46/46
f 47/47/47 48/48/47 46/46/47
f 48/48/48 47/47/48 49/49/48
f 50/50/49 48/48/49 49/49/49 51/51/49
f 50/50/50 51/51/50 52/52/50
f 44/44/51 43/43/51 52/52/51
f 45/45/52 44/44/52 53/53/52 54/54/52
f 46/46/53 45/45/53 54/54/53 55/55/53
f 47/47/54 46/46/54 55/55/54 56/56/54
f 49/49/55 47/47/55 56/56/55 57/57/55
f 51/51/56 49/49/56 57/57/56 58/58/56
f 51/51/57 58/58/57 52/52/57
f 59/59/58 55/55/58 54/54/58
f 55/55/59 59/59/59 60/60/59
f 56/56/60 55/55/60 60/60/60 61/61/60
f 57/57/61 56/56/61 61/61/61 41/41/61
f 57/57/62 41/41/62 58/58/62
f 52/52/63 58/58/63 40/40/63 62/62/63
f 44/44/64 52/52/64 62/62/64 53/53/64
f 54/54/65 53/53/65 62/62/65 63/63/65
f 59/59/66 54/54/66 63/63/66 64/64/66
f 59/59/67 64/64/67 60/60/67
f 40/40/68 58/58/68 41/41/68
f 34/34/69 61/61/69 60/60/69
f 34/34/70 42/42/70 61/61/70
f 39/39/71 62/62/71 40/40/71
f 62/62/72 39/39/72 38/38/72
f 63/63/73 62/62/73 38/38/73 35/35/73
f 63/63/74 35/35/74 64/64/74
f 64/64/75 35/35/75 34/34/75 60/60/75
f 61/61/76 42/42/76 41/41/76
f 65/65/77 66/66/77 67/67/77 68/68/77
f 69/69/78 68/68/78 67/67/78
f 70/70/79 69/69/79 71/71/79 72/72/79
f 72/72/80 71/71/80 73/73/80 74/74/80
f 75/75/81 74/74/81 73/73/81
f 75/75/82 73/73/82 76/76/82 77/77/82
f 77/77/83 76/76/83 66/66/83 65/65/83
f 68/68/84 69/69/84 78/78/84
f 70/70/85 78/78/85 69/69/85
f 78/78/86 70/70/86 79/79/86
f 79/79/87 70/70/87 72/72/87 80/80/87
f 74/74/88 80/80/88 72/72/88
f 65/65/89 81/81/89 82/82/89 77/77/89
f 68/68/90 81/81/90 65/65/90
f 77/77/91 82/82/91 83/83/91 75/75/91
f 84/84/92 79/79/92 80/80/92 85/85/92
f 85/85/93 80/80/93 74/74/93 86/86/93
f 86/86/94 74/74/94 75/75/94 83/83/94
f 82/82/95 81/81/95 87/87/95
f 87/87/96 81/81/96 68/68/96 88/88/96
f 88/88/97 68/68/97 78/78/97 89/89/97
f 89/89/98 78/78/98 79/79/98 84/84/98
f 82/82/99 87/87/99 90/90/99
f 90/90/100 87/87/100 88/88/100 91/91/100
f 91/91/101 88/88/101 89/89/101 92/92/101
f 92/92/102 89/89/102 84/84/102 93/93/102
f 93/93/103 84/84/103 85/85/103 94/94/103
f 94/94/104 85/85/104 86/86/104 95/95/104
f 83/83/105 95/95/105 86/86/105
f 92/92/106 96/96/106 91/91/106
f 92/92/107 93/93/107 94/94/107 97/97/107
f 97/97/108 94/94/108 95/95/108 98/98/108
f 98/98/109 95/95/109 83/83/109 99/99/109
f 83/83/110 82/82/110 99/99/110
f 99/99/111 82/82/111 90/90/111 100/100/111
f 100/100/112 90/90/112 91/91/112 96/96/112
f 96/96/113 101/101/113 100/100/113
f 102/102/114 99/99/114 100/100/114 101/101/114
f 103/103/115 101/101/115 96/96/115 104/104/115
f 105/105/116 104/104/116 96/96/116
f 105/105/117 96/96/117 92/92/117 106/106/117
f 106/106/118 92/92/118 97/97/118 107/107/118
f 107/107/119 97/97/119 98/98/119 108/108/119
f 108/108/120 98/98/120 99/99/120 109/109/120
f 102/102/121 109/109/121 99/99/121
f 102/102/122 101/101/122 103/103/122
f 110/110/123 107/107/123 108/108/123 111/111/123
f 109/109/124 111/111/124 108/108/124
f 103/103/125 104/104/125 112/112/125
f 112/112/126 104/104/126 105/105/126 113/113/126
f 105/105/127 106/106/127 113/113/127
f 113/113/128 106/106/128 107/107/128 110/110/128
f 111/111/129 109/109/129 114/114/129
f 114/114/130 109/109/130 102/102/130 115/115/130
f 115/115/131 102/102/131 103/103/131 116/116/131
f 116/116/132 103/103/132 112/112/132 117/117/132
f 117/117/133 112/112/133 113/113/133 118/118/133
f 110/110/134 118/118/134 113/113/134
f 114/114/135 115/115/135 116/116/135
f 117/117/136 118/118/136 119/119/136
f 120/120/137 119/119/137 118/118/137
f 110/110/138 120/120/138 118/118/138
f 116/116/139 121/121/139 1/1/139
f 10/10/140 1/1/140 121/121/140
f 119/119/141 122/122/141 123/123/141 124/124/141
f 125/125/142 122/122/142 119/119/142
f 10/10/143 126/126/143 127/127/143 125/125/143
f 126/126/144 10/10/144 121/121/144 128/128/144
f 128/128/145 121/121/145 116/116/145 129/129/145
f 129/129/146 116/116/146 117/117/146 130/130/146
f 130/130/147 117/117/147 119/119/147 124/124/147
f 129/129/148 130/130/148 131/131/148
f 131/131/149 130/130/149 124/124/149 123/123/149
f 126/126/150 128/128/150 132/132/150
f 132/132/151 128/128/151 129/129/151 131/131/151
f 125/125/152 127/127/152 133/133/152 122/122/152
f 132/132/153 134/134/153 135/135/153 126/126/153
f 132/132/154 131/131/154 134/134/154
f 127/127/155 126/126/155 135/135/155
f 136/136/156 134/134/156 131/131/156 137/137/156
f 138/138/157 137/137/157 131/131/157
f 138/138/158 131/131/158 123/123/158 139/139/158
f 139/139/159 123/123/159 122/122/159 133/133/159
f 140/140/160 139/139/160 133/133/160 141/141/160
f 141/141/161 133/133/161 127/127/161 142/142/161
f 142/142/162 127/127/162 135/135/162 143/143/162
f 143/143/163 135/135/163 134/134/163 144/144/163
f 136/136/164 144/144/164 134/134/164
f 136/136/165 137/137/165 145/145/165
f 145/145/166 137/137/166 138/138/166 146/146/166
f 146/146/167 138/138/167 139/139/167 140/140/167
f 144/144/168 136/136/168 145/145/168
f 145/145/169 146/146/169 147/147/169
f 147/147/170 146/146/170 140/140/170 148/148/170
f 148/148/171 140/140/171 141/141/171 149/149/171
f 142/142/172 149/149/172 141/141/172
f 143/143/173 150/150/173 151/151/173 142/142/173
f 144/144/174 150/150/174 143/143/174
f 152/152/175 153/153/175 154/154/175 155/155/175
f 156/156/176 155/155/177 154/154/178
f 156/156/179 157/157/179 158/158/179
f 159/159/180 158/158/180 157/157/180
f 160/160/181 159/159/181 157/157/181
f 160/160/182 157/157/182 153/153/182 152/152/182
f 155/155/177 156/156/176 161/161/183
f 156/156/184 158/158/184 161/161/184
f 162/162/185 161/161/185 158/158/185
f 159/159/186 162/162/186 158/158/186
f 163/163/187 152/152/187 155/155/187 164/164/187
f 155/155/188 161/161/188 164/164/188
f 165/165/189 164/164/189 161/161/189
f 162/162/190 151/151/190 150/150/190 161/161/190
f 151/151/191 162/162/191 159/159/191 149/149/191
f 160/160/192 149/149/192 159/159/192
f 152/152/193 163/163/193 148/148/193 160/160/193
f 163/163/194 164/164/194 166/166/194
f 167/167/195 166/166/195 164/164/195
f 167/167/196 164/164/196 165/165/196 168/168/196
f 168/168/197 165/165/197 161/161/197 150/150/197
f 149/149/198 160/160/198 148/148/198
f 167/167/199 168/168/199 169/169/199
f 169/169/200 168/168/200 150/150/200 144/144/200
f 149/149/201 142/142/201 151/151/201
f 148/148/202 163/163/202 147/147/202
f 163/163/203 166/166/203 145/145/203
f 167/167/204 145/145/204 166/166/204
f 144/144/205 145/145/205 167/167/205 169/169/205
f 145/145/206 147/147/206 163/163/206
f 5/5/207 6/6/207 111/111/207
f 8/8/208 110/110/208 111/111/208 6/6/208
f 11/11/209 120/120/209 110/110/209 12/12/209
f 120/120/210 10/10/210 125/125/210
f 3/3/211 114/114/211 116/116/211 1/1/211
f 114/114/212 3/3/212 5/5/212 111/111/212
f 8/8/213 12/12/213 110/110/213
f 11/11/214 10/10/214 120/120/214
f 120/120/215 125/125/215 119/119/215
f 170/170/216 66/66/216 76/76/216
f 170/170/217 67/67/217 66/66/217
f 170/170/218 69/69/218 67/67/218
f 170/170/219 71/71/219 69/69/219
f 170/170/220 73/73/220 71/71/220
f 170/170/221 76/76/221 73/73/221
f 171/171/222 157/157/222 156/156/222
f 171/171/223 153/153/223 157/157/223
f 171/171/224 154/154/224 153/153/224
f 171/171/225 156/156/225 154/154/225
f 172/172/226 43/43/226 46/46/226
f 172/172/227 46/46/227 48/48/227
f 172/172/228 48/48/228 50/50/228
f 172/172/229 50/50/229 52/52/229
f 172/172/230 52/52/230 43/43/230
