<svg xmlns="http://www.w3.org/2000/svg" width="40" height="31.4" viewBox="-4 227.3 40 31.4">
  <path d="M35.4 227.3H-3.4c-.3 0-.6.3-.6.6v30.2c0 .3.3.6.6.6h38.8c.3 0 .6-.3.6-.6v-30.2c0-.3-.3-.6-.6-.6zm-.6 30.1H-2.7v-28.9h37.5v28.9z"/>
  <path d="M26.2 239h4.3c.3 0 .6-.3.6-.6v-4.3c0-.3-.3-.6-.6-.6h-4.3c-.3 0-.6.3-.6.6v4.3c0 .3.2.6.6.6zm.6-4.3h3.1v3.1h-3.1v-3.1zM1.6 240.7H12c.3 0 .6-.3.6-.6s-.3-.6-.6-.6H1.6c-.3 0-.6.3-.6.6s.2.6.6.6zM1.6 237.6H12c.3 0 .6-.3.6-.6s-.3-.6-.6-.6H1.6c-.3 0-.6.3-.6.6-.1.3.2.6.6.6zM1.6 243.7H12c.3 0 .6-.3.6-.6s-.3-.6-.6-.6H1.6c-.3 0-.6.3-.6.6-.1.4.2.6.6.6zM1.6 246.8H12c.3 0 .6-.3.6-.6s-.3-.6-.6-.6H1.6c-.3 0-.6.3-.6.6-.1.4.2.6.6.6zM1.6 249.9H12c.3 0 .6-.3.6-.6s-.3-.6-.6-.6H1.6c-.3 0-.6.3-.6.6-.1.3.2.6.6.6zM17.3 253c.3 0 .6-.3.6-.6v-18.5c0-.3-.3-.6-.6-.6s-.6.3-.6.6v18.5c-.1.3.2.6.6.6z"/>
</svg>
