<svg xmlns="http://www.w3.org/2000/svg" width="30" height="43.3">
  <path d="M15.4 43.3h-.7c-3.9 0-7.6-1.5-10.3-4.3C1.5 36.2 0 32.6 0 28.7v-14c0-4 1.5-7.7 4.3-10.4C7 1.5 10.7 0 14.6 0h.7c3.9 0 7.6 1.5 10.3 4.3C28.5 7 30 10.7 30 14.6v14c0 3.9-1.5 7.6-4.3 10.3-2.7 2.9-6.4 4.4-10.3 4.4zm-.8-41.5c-3.4 0-6.7 1.3-9.1 3.8-2.4 2.4-3.7 5.6-3.7 9v14c0 3.4 1.3 6.7 3.8 9.1 2.4 2.4 5.7 3.8 9.1 3.8h.7c3.4 0 6.7-1.3 9.1-3.8 2.4-2.4 3.8-5.7 3.8-9.1v-14c0-3.4-1.3-6.7-3.8-9.1-2.4-2.4-5.7-3.8-9.1-3.8h-.8z"/>
  <path d="M15 10.2c-.6 0-1.1.5-1.1 1.1v4.6c0 .6.5 1.1 1.1 1.1.6 0 1.1-.5 1.1-1.1v-4.6c0-.6-.5-1.1-1.1-1.1z"/>
</svg>
