<?xml version="1.0" encoding="utf-8"?>
<!-- Generator: Adobe Illustrator 19.0.0, SVG Export Plug-In . SVG Version: 6.00 Build 0)  -->
<svg version="1.1" id="Calque_1" xmlns="http://www.w3.org/2000/svg" xmlns:xlink="http://www.w3.org/1999/xlink" x="0px" y="0px"
	 width="41px" height="41px" viewBox="-40.5 227.5 41 41" style="enable-background:new -40.5 227.5 41 41;" xml:space="preserve">
<g>
	<g>
		<path d="M-30,227.5h-10c-0.3,0-0.5,0.2-0.5,0.5v10c0,0.3,0.2,0.5,0.5,0.5s0.5-0.2,0.5-0.5v-9.5h9.5c0.3,0,0.5-0.2,0.5-0.5
			S-29.7,227.5-30,227.5z"/>
		<path d="M-30,267.5h-9.5V258c0-0.3-0.2-0.5-0.5-0.5s-0.5,0.2-0.5,0.5v10c0,0.3,0.2,0.5,0.5,0.5h10c0.3,0,0.5-0.2,0.5-0.5
			S-29.7,267.5-30,267.5z"/>
		<path d="M0,257.5c-0.3,0-0.5,0.2-0.5,0.5v9.5H-10c-0.3,0-0.5,0.2-0.5,0.5s0.2,0.5,0.5,0.5H0c0.3,0,0.5-0.2,0.5-0.5v-10
			C0.5,257.7,0.3,257.5,0,257.5z"/>
		<path d="M0,227.5h-10c-0.3,0-0.5,0.2-0.5,0.5s0.2,0.5,0.5,0.5h9.5v9.5c0,0.3,0.2,0.5,0.5,0.5s0.5-0.2,0.5-0.5v-10
			C0.5,227.7,0.3,227.5,0,227.5z"/>
	</g>
</g>
</svg>
